<svg width="16" height="16" viewBox="0 0 16 16" fill="none" xmlns="http://www.w3.org/2000/svg">
<path d="M14.667 9.46598V11.866C14.667 13.866 13.867 14.666 11.867 14.666H9.46699C7.46699 14.666 6.66699 13.866 6.66699 11.866V9.33268C6.70033 7.47268 7.47366 6.69935 9.33366 6.66602H11.867C13.867 6.66602 14.667 7.46598 14.667 9.46598Z" stroke="white" stroke-width="1.5" stroke-linecap="round" stroke-linejoin="round"/>
<path d="M9.97314 9.07975C9.6198 9.31975 9.15314 9.31974 8.7998 9.06641" stroke="white" stroke-width="1.5" stroke-miterlimit="10" stroke-linecap="round" stroke-linejoin="round"/>
<path d="M12.6401 9.07975C12.2868 9.31975 11.8201 9.31974 11.4668 9.06641" stroke="white" stroke-width="1.5" stroke-miterlimit="10" stroke-linecap="round" stroke-linejoin="round"/>
<path d="M9.22621 10.7871H12.1062C12.3062 10.7871 12.4662 10.9471 12.4662 11.1471C12.4662 12.1404 11.6595 12.9471 10.6662 12.9471C9.67288 12.9471 8.86621 12.1404 8.86621 11.1471C8.86621 10.9471 9.02621 10.7871 9.22621 10.7871Z" stroke="white" stroke-width="1.5" stroke-miterlimit="10" stroke-linecap="round" stroke-linejoin="round"/>
<path d="M5.18667 6.64067C5.08667 6.674 4.92 6.674 4.81333 6.64067C3.94667 6.34067 2 5.10732 2 3.00732C2 2.08066 2.74667 1.33398 3.66667 1.33398C4.21333 1.33398 4.69333 1.59398 5 2.00065C5.30667 1.59398 5.78667 1.33398 6.33333 1.33398C7.25333 1.33398 8 2.08066 8 3.00732C7.99333 5.10732 6.05333 6.34067 5.18667 6.64067Z" stroke="white" stroke-width="1.5" stroke-linecap="round" stroke-linejoin="round"/>
</svg>
