<svg width="16" height="16" viewBox="0 0 16 16" fill="none" xmlns="http://www.w3.org/2000/svg">
<path d="M2.00671 7.48001V10.4733C2.00671 13.4667 3.20671 14.6667 6.20005 14.6667H9.79338C12.7867 14.6667 13.9867 13.4667 13.9867 10.4733V7.48001" stroke="white" stroke-width="1.5" stroke-linecap="round" stroke-linejoin="round"/>
<path d="M7.99999 8.00001C9.21999 8.00001 10.12 7.00668 9.99999 5.78668L9.55999 1.33334H6.44666L5.99999 5.78668C5.87999 7.00668 6.77999 8.00001 7.99999 8.00001Z" stroke="white" stroke-width="1.5" stroke-linecap="round" stroke-linejoin="round"/>
<path d="M12.2067 8.00001C13.5533 8.00001 14.54 6.90668 14.4067 5.56668L14.22 3.73334C13.98 2.00001 13.3133 1.33334 11.5667 1.33334H9.53333L9.99999 6.00668C10.1133 7.10668 11.1067 8.00001 12.2067 8.00001Z" stroke="white" stroke-width="1.5" stroke-linecap="round" stroke-linejoin="round"/>
<path d="M3.76004 8.00001C4.86004 8.00001 5.85338 7.10668 5.96004 6.00668L6.10671 4.53334L6.42671 1.33334H4.39338C2.64671 1.33334 1.98004 2.00001 1.74004 3.73334L1.56004 5.56668C1.42671 6.90668 2.41338 8.00001 3.76004 8.00001Z" stroke="white" stroke-width="1.5" stroke-linecap="round" stroke-linejoin="round"/>
<path d="M8.00004 11.3333C6.88671 11.3333 6.33337 11.8867 6.33337 13V14.6667H9.66671V13C9.66671 11.8867 9.11337 11.3333 8.00004 11.3333Z" stroke="white" stroke-width="1.5" stroke-linecap="round" stroke-linejoin="round"/>
</svg>
